<?xml version="1.0" standalone="no"?><!-- Generator: Gravit.io --><svg xmlns="http://www.w3.org/2000/svg" xmlns:xlink="http://www.w3.org/1999/xlink" style="isolation:isolate" viewBox="0 0 540 540" width="540" height="540"><defs><clipPath id="_clipPath_lPyg1Efm4MhKF2N6MJkk92e7Bvsf8ep9"><rect width="540" height="540"/></clipPath></defs><g clip-path="url(#_clipPath_lPyg1Efm4MhKF2N6MJkk92e7Bvsf8ep9)"><path d=" M 270.002 0 C 120.904 0 0 120.878 0 270.001 C 0 389.294 77.364 490.502 184.644 526.204 C 198.138 528.704 203.092 520.347 203.092 513.216 C 203.092 506.777 202.842 485.508 202.725 462.947 C 127.61 479.28 111.76 431.09 111.76 431.09 C 99.478 399.882 81.781 391.581 81.781 391.581 C 57.284 374.824 83.628 375.168 83.628 375.168 C 110.741 377.072 125.017 402.995 125.017 402.995 C 149.099 444.271 188.181 432.338 203.588 425.439 C 206.012 407.99 213.009 396.074 220.73 389.333 C 160.759 382.508 97.716 359.354 97.716 255.898 C 97.716 226.421 108.264 202.334 125.536 183.426 C 122.732 176.623 113.491 149.163 128.151 111.97 C 128.151 111.97 150.824 104.718 202.421 139.651 C 223.959 133.667 247.056 130.667 270.002 130.562 C 292.948 130.667 316.064 133.667 337.641 139.651 C 389.176 104.718 411.817 111.97 411.817 111.97 C 426.514 149.163 417.268 176.623 414.464 183.426 C 431.777 202.334 442.252 226.421 442.252 255.898 C 442.252 359.603 379.089 382.434 318.966 389.119 C 328.65 397.498 337.279 413.929 337.279 439.12 C 337.279 475.247 336.966 504.323 336.966 513.216 C 336.966 520.401 341.826 528.82 355.513 526.169 C 462.735 490.426 540 389.254 540 270.001 C 540 120.878 419.114 0 270.002 0 Z " fill-rule="evenodd" fill="rgb(13,13,13)"/><path d=" M 102.264 387.661 C 101.669 389.006 99.558 389.407 97.636 388.486 C 95.678 387.604 94.578 385.774 95.213 384.429 C 95.794 383.05 97.909 382.666 99.863 383.587 C 101.825 384.469 102.943 386.316 102.264 387.661 L 102.264 387.661 Z " fill="rgb(13,13,13)"/><path d=" M 113.2 399.86 C 111.912 401.052 109.395 400.498 107.687 398.611 C 105.921 396.73 105.59 394.21 106.896 393.001 C 108.224 391.809 110.665 392.367 112.435 394.249 C 114.202 396.153 114.546 398.651 113.2 399.86 L 113.2 399.86 Z " fill="rgb(13,13,13)"/><path d=" M 123.846 415.409 C 122.191 416.561 119.486 415.483 117.814 413.081 C 116.16 410.68 116.16 407.798 117.85 406.646 C 119.527 405.493 122.191 406.532 123.886 408.912 C 125.536 411.352 125.536 414.234 123.846 415.409 L 123.846 415.409 Z " fill="rgb(13,13,13)"/><path d=" M 138.43 430.433 C 136.951 432.065 133.798 431.627 131.491 429.4 C 129.131 427.223 128.473 424.133 129.958 422.501 C 131.456 420.865 134.626 421.325 136.951 423.534 C 139.293 425.707 140.009 428.819 138.43 430.433 L 138.43 430.433 Z " fill="rgb(13,13,13)"/><path d=" M 158.551 439.156 C 157.898 441.271 154.862 442.232 151.804 441.334 C 148.75 440.408 146.751 437.931 147.368 435.794 C 148.003 433.666 151.052 432.664 154.133 433.625 C 157.182 434.546 159.185 437.005 158.551 439.156 L 158.551 439.156 Z " fill="rgb(13,13,13)"/><path d=" M 180.647 440.775 C 180.723 443.001 178.13 444.848 174.919 444.888 C 171.691 444.96 169.08 443.158 169.044 440.967 C 169.044 438.718 171.579 436.889 174.808 436.835 C 178.018 436.773 180.647 438.561 180.647 440.775 L 180.647 440.775 Z " fill="rgb(13,13,13)"/><path d=" M 201.21 437.274 C 201.594 439.447 199.363 441.678 196.175 442.272 C 193.041 442.845 190.139 441.503 189.741 439.348 C 189.352 437.122 191.623 434.891 194.753 434.314 C 197.946 433.759 200.803 435.065 201.21 437.274 L 201.21 437.274 Z " fill="rgb(13,13,13)"/></g></svg>