<?xml version="1.0" standalone="no"?><!-- Generator: Gravit.io --><svg xmlns="http://www.w3.org/2000/svg" xmlns:xlink="http://www.w3.org/1999/xlink" style="isolation:isolate" viewBox="0 0 540 540" width="540" height="540"><defs><clipPath id="_clipPath_1QOJxQomXvr565YbWBaYGJBLTXX5szbh"><rect width="540" height="540"/></clipPath></defs><g clip-path="url(#_clipPath_1QOJxQomXvr565YbWBaYGJBLTXX5szbh)"><path d=" M 0 270 C 0 120.983 120.983 0 270 0 C 419.017 0 540 120.983 540 270 C 540 419.017 419.017 540 270 540 C 120.983 540 0 419.017 0 270 Z " fill="rgb(13,13,13)"/><g id="Group"><path d=" M 427.861 427.574 L 362.443 427.574 L 362.443 325.205 C 362.443 300.794 362.024 269.39 328.448 269.39 C 294.405 269.39 289.211 295.996 289.211 323.458 L 289.211 427.574 L 223.865 427.574 L 223.865 217.069 L 286.579 217.069 L 286.579 245.847 L 287.476 245.847 C 296.199 229.298 317.546 211.845 349.376 211.845 C 415.619 211.845 427.861 255.432 427.861 312.126 L 427.861 427.574 Z " fill="rgb(255,255,255)"/><path d=" M 150.095 188.308 C 129.083 188.308 112.139 171.311 112.139 150.365 C 112.139 129.424 129.083 112.426 150.095 112.426 C 171.023 112.426 188.015 129.424 188.015 150.365 C 188.015 171.311 171.023 188.308 150.095 188.308 Z " fill="rgb(255,255,255)"/><path d=" M 182.822 427.574 L 117.332 427.574 L 117.332 217.069 L 182.822 217.069 L 182.822 427.574 Z " fill="rgb(255,255,255)"/></g></g></svg>